<svg xmlns="http://www.w3.org/2000/svg" width="1600" height="620" viewBox="0 0 1600 620">
<defs>
<linearGradient id="bg" x1="0" y1="0" x2="1" y2="1"><stop offset="0" stop-color="#070b12"/><stop offset=".55" stop-color="#0d1524"/><stop offset="1" stop-color="#111827"/></linearGradient>
<linearGradient id="accent" x1="0" y1="0" x2="1" y2="1"><stop offset="0" stop-color="#22d3ee"/><stop offset=".5" stop-color="#6366f1"/><stop offset="1" stop-color="#a855f7"/></linearGradient>
</defs>
<rect width="1600" height="620" rx="28" fill="url(#bg)"/>
<g opacity=".12" stroke="#94a3b8"><path d="M0 100H1600M0 200H1600M0 300H1600M0 400H1600M0 500H1600"/><path d="M200 0V620M400 0V620M600 0V620M800 0V620M1000 0V620M1200 0V620M1400 0V620"/></g>
<g stroke="url(#accent)" stroke-width="3" opacity=".65" fill="none"><path d="M1010 170L1160 120L1310 185L1460 125"/><path d="M1010 170L1090 315L1250 340L1310 185"/><path d="M1090 315L1000 455L1180 505L1250 340L1460 420"/><path d="M1310 185L1460 420"/></g>
<g fill="#0f172a" stroke="#67e8f9" stroke-width="3"><circle cx="1010" cy="170" r="13"/><circle cx="1160" cy="120" r="13"/><circle cx="1310" cy="185" r="13"/><circle cx="1460" cy="125" r="13"/><circle cx="1090" cy="315" r="13"/><circle cx="1250" cy="340" r="13"/><circle cx="1000" cy="455" r="13"/><circle cx="1180" cy="505" r="13"/><circle cx="1460" cy="420" r="13"/></g>
<g font-family="Arial,Segoe UI,sans-serif" fill="#e2e8f0">
<text x="105" y="165" font-size="22" letter-spacing="5" fill="#67e8f9">CODEBASE INTELLIGENCE</text>
<text x="100" y="235" font-size="70" font-weight="800">RepoLens</text>
<text x="105" y="285" font-size="27" fill="#cbd5e1">Evidence-Based Codebase Intelligence</text>
<text x="105" y="322" font-size="27" fill="#cbd5e1">&amp; Architecture Drift Auditor</text>
<text x="105" y="375" font-size="20" fill="#94a3b8">Structure  ·  Dependencies  ·  Architecture  ·  Risks</text>
<text x="105" y="407" font-size="20" fill="#94a3b8">Evidence  ·  Grounded Q&amp;A  ·  Drift</text>
</g>
<g transform="translate(105 475)">
<rect width="172" height="54" rx="27" fill="url(#accent)"/><text x="86" y="34" text-anchor="middle" font-family="Arial,Segoe UI,sans-serif" font-size="17" font-weight="700" fill="white">LIVE DEMO →</text>
<rect x="190" width="190" height="54" rx="27" fill="#111827" stroke="#334155"/><text x="285" y="34" text-anchor="middle" font-family="Arial,Segoe UI,sans-serif" font-size="17" font-weight="700" fill="#cbd5e1">EVIDENCE FIRST</text>
</g>
</svg>